<?xml version="1.0" encoding="UTF-8" standalone="no"?>
<svg
   xmlns:dc="http://purl.org/dc/elements/1.1/"
   xmlns:cc="http://creativecommons.org/ns#"
   xmlns:rdf="http://www.w3.org/1999/02/22-rdf-syntax-ns#"
   xmlns:svg="http://www.w3.org/2000/svg"
   xmlns="http://www.w3.org/2000/svg"
   xmlns:sodipodi="http://sodipodi.sourceforge.net/DTD/sodipodi-0.dtd"
   xmlns:inkscape="http://www.inkscape.org/namespaces/inkscape"
   width="297mm"
   height="210mm"
   viewBox="0 0 2970 2100"
   version="1.2"
   id="svg1092"
   sodipodi:docname="BaseOut.svg"
   inkscape:version="0.92.2 (5c3e80d, 2017-08-06)">
  <metadata
     id="metadata1096">
    <rdf:RDF>
      <cc:Work
         rdf:about="">
        <dc:format>image/svg+xml</dc:format>
        <dc:type
           rdf:resource="http://purl.org/dc/dcmitype/StillImage" />
      </cc:Work>
    </rdf:RDF>
  </metadata>
  <sodipodi:namedview
     pagecolor="#ffffff"
     bordercolor="#666666"
     borderopacity="1"
     objecttolerance="10"
     gridtolerance="10"
     guidetolerance="10"
     inkscape:pageopacity="0"
     inkscape:pageshadow="2"
     inkscape:window-width="1920"
     inkscape:window-height="1015"
     id="namedview1094"
     showgrid="false"
     inkscape:zoom="1.1687991"
     inkscape:cx="477.69656"
     inkscape:cy="192.36923"
     inkscape:window-x="0"
     inkscape:window-y="0"
     inkscape:window-maximized="1"
     inkscape:current-layer="svg1092" />
  <title
     id="title2">FreeCAD SVG Export</title>
  <desc
     id="desc4">Drawing page: Page009 exported from FreeCAD document: BreadBoardBox</desc>
  <defs
     id="defs6" />
  <path
     d="M 155,450 V 220 h 330 v 80 h 400 v -80 h 400 v 80 h 400 v -80 h 400 v 80 h 400 v -80 h 330 v 230 h -80 v 400 h 80 v 400 h -80 v 400 h 80 v 230 h -330 v -80 h -400 v 80 h -400 v -80 h -400 v 80 H 885 v -80 H 485 v 80 H 155 v -230 h 80 V 1250 H 155 V 850 h 80 V 450 h -80"
     id="path50"
     inkscape:connector-curvature="0"
     style="font-style:normal;font-weight:400;font-size:medium;font-family:'Sans Serif';vector-effect:non-scaling-stroke;fill:none;fill-opacity:1;fill-rule:evenodd;stroke:#000000;stroke-width:1;stroke-linecap:square;stroke-linejoin:bevel;stroke-opacity:1" />
  <path
     d="m 618,450 c 0,18.225 -14.775,33 -33,33 -18.225,0 -33,-14.775 -33,-33 0,-18.225 14.775,-33 33,-33 18.225,0 33,14.775 33,33"
     id="path66"
     inkscape:connector-curvature="0"
     style="font-style:normal;font-weight:400;font-size:medium;font-family:'Sans Serif';vector-effect:non-scaling-stroke;fill:none;fill-opacity:1;fill-rule:evenodd;stroke:#000000;stroke-width:1;stroke-linecap:square;stroke-linejoin:bevel;stroke-opacity:1" />
  <path
     d="m 418,650 c 0,18.225 -14.77,33 -33,33 -18.23,0 -33,-14.775 -33,-33 0,-18.225 14.77,-33 33,-33 18.23,0 33,14.775 33,33"
     id="path82"
     inkscape:connector-curvature="0"
     style="font-style:normal;font-weight:400;font-size:medium;font-family:'Sans Serif';vector-effect:non-scaling-stroke;fill:none;fill-opacity:1;fill-rule:evenodd;stroke:#000000;stroke-width:1;stroke-linecap:square;stroke-linejoin:bevel;stroke-opacity:1" />
  <path
     d="m 418,1450 c 0,18.225 -14.77,33 -33,33 -18.23,0 -33,-14.775 -33,-33 0,-18.225 14.77,-33 33,-33 18.23,0 33,14.775 33,33"
     id="path98"
     inkscape:connector-curvature="0"
     style="font-style:normal;font-weight:400;font-size:medium;font-family:'Sans Serif';vector-effect:non-scaling-stroke;fill:none;fill-opacity:1;fill-rule:evenodd;stroke:#000000;stroke-width:1;stroke-linecap:square;stroke-linejoin:bevel;stroke-opacity:1" />
  <path
     d="m 418,1650 c 0,18.225 -14.77,33 -33,33 -18.23,0 -33,-14.775 -33,-33 0,-18.225 14.77,-33 33,-33 18.23,0 33,14.775 33,33"
     id="path114"
     inkscape:connector-curvature="0"
     style="font-style:normal;font-weight:400;font-size:medium;font-family:'Sans Serif';vector-effect:non-scaling-stroke;fill:none;fill-opacity:1;fill-rule:evenodd;stroke:#000000;stroke-width:1;stroke-linecap:square;stroke-linejoin:bevel;stroke-opacity:1" />
  <path
     d="m 618,650 c 0,18.225 -14.775,33 -33,33 -18.225,0 -33,-14.775 -33,-33 0,-18.225 14.775,-33 33,-33 18.225,0 33,14.775 33,33"
     id="path130"
     inkscape:connector-curvature="0"
     style="font-style:normal;font-weight:400;font-size:medium;font-family:'Sans Serif';vector-effect:non-scaling-stroke;fill:none;fill-opacity:1;fill-rule:evenodd;stroke:#000000;stroke-width:1;stroke-linecap:square;stroke-linejoin:bevel;stroke-opacity:1" />
  <path
     d="m 618,1450 c 0,18.225 -14.775,33 -33,33 -18.225,0 -33,-14.775 -33,-33 0,-18.225 14.775,-33 33,-33 18.225,0 33,14.775 33,33"
     id="path146"
     inkscape:connector-curvature="0"
     style="font-style:normal;font-weight:400;font-size:medium;font-family:'Sans Serif';vector-effect:non-scaling-stroke;fill:none;fill-opacity:1;fill-rule:evenodd;stroke:#000000;stroke-width:1;stroke-linecap:square;stroke-linejoin:bevel;stroke-opacity:1" />
  <path
     d="m 618,850 c 0,18.225 -14.775,33 -33,33 -18.225,0 -33,-14.775 -33,-33 0,-18.225 14.775,-33 33,-33 18.225,0 33,14.775 33,33"
     id="path162"
     inkscape:connector-curvature="0"
     style="font-style:normal;font-weight:400;font-size:medium;font-family:'Sans Serif';vector-effect:non-scaling-stroke;fill:none;fill-opacity:1;fill-rule:evenodd;stroke:#000000;stroke-width:1;stroke-linecap:square;stroke-linejoin:bevel;stroke-opacity:1" />
  <path
     d="m 1913,1575 c 0,18.225 -14.775,33 -33,33 -18.225,0 -33,-14.775 -33,-33 0,-18.225 14.775,-33 33,-33 18.225,0 33,14.775 33,33"
     id="path178"
     inkscape:connector-curvature="0"
     style="font-style:normal;font-weight:400;font-size:medium;font-family:'Sans Serif';vector-effect:non-scaling-stroke;fill:none;fill-opacity:1;fill-rule:evenodd;stroke:#000000;stroke-width:1;stroke-linecap:square;stroke-linejoin:bevel;stroke-opacity:1" />
  <path
     d="m 418,850 c 0,18.225 -14.77,33 -33,33 -18.23,0 -33,-14.775 -33,-33 0,-18.225 14.77,-33 33,-33 18.23,0 33,14.775 33,33"
     id="path194"
     inkscape:connector-curvature="0"
     style="font-style:normal;font-weight:400;font-size:medium;font-family:'Sans Serif';vector-effect:non-scaling-stroke;fill:none;fill-opacity:1;fill-rule:evenodd;stroke:#000000;stroke-width:1;stroke-linecap:square;stroke-linejoin:bevel;stroke-opacity:1" />
  <path
     d="m 618,1250 c 0,18.225 -14.775,33 -33,33 -18.225,0 -33,-14.775 -33,-33 0,-18.225 14.775,-33 33,-33 18.225,0 33,14.775 33,33"
     id="path210"
     inkscape:connector-curvature="0"
     style="font-style:normal;font-weight:400;font-size:medium;font-family:'Sans Serif';vector-effect:non-scaling-stroke;fill:none;fill-opacity:1;fill-rule:evenodd;stroke:#000000;stroke-width:1;stroke-linecap:square;stroke-linejoin:bevel;stroke-opacity:1" />
  <path
     d="m 418,1050 c 0,18.2254 -14.77,33 -33,33 -18.23,0 -33,-14.7746 -33,-33 0,-18.2254 14.77,-33 33,-33 18.23,0 33,14.7746 33,33"
     id="path226"
     inkscape:connector-curvature="0"
     style="font-style:normal;font-weight:400;font-size:medium;font-family:'Sans Serif';vector-effect:non-scaling-stroke;fill:none;fill-opacity:1;fill-rule:evenodd;stroke:#000000;stroke-width:1;stroke-linecap:square;stroke-linejoin:bevel;stroke-opacity:1" />
  <path
     d="m 618,1050 c 0,18.2254 -14.775,33 -33,33 -18.225,0 -33,-14.7746 -33,-33 0,-18.2254 14.775,-33 33,-33 18.225,0 33,14.7746 33,33"
     id="path242"
     inkscape:connector-curvature="0"
     style="font-style:normal;font-weight:400;font-size:medium;font-family:'Sans Serif';vector-effect:non-scaling-stroke;fill:none;fill-opacity:1;fill-rule:evenodd;stroke:#000000;stroke-width:1;stroke-linecap:square;stroke-linejoin:bevel;stroke-opacity:1" />
  <path
     d="m 838,1050 c 0,18.2254 -14.775,33 -33,33 -18.225,0 -33,-14.7746 -33,-33 0,-18.2254 14.775,-33 33,-33 18.225,0 33,14.7746 33,33"
     id="path258"
     inkscape:connector-curvature="0"
     style="font-style:normal;font-weight:400;font-size:medium;font-family:'Sans Serif';vector-effect:non-scaling-stroke;fill:none;fill-opacity:1;fill-rule:evenodd;stroke:#000000;stroke-width:1;stroke-linecap:square;stroke-linejoin:bevel;stroke-opacity:1" />
  <path
     d="m 1913,980 c 0,18.2254 -14.775,33 -33,33 -18.225,0 -33,-14.7746 -33,-33 0,-18.2254 14.775,-33 33,-33 18.225,0 33,14.7746 33,33"
     id="path274"
     inkscape:connector-curvature="0"
     style="font-style:normal;font-weight:400;font-size:medium;font-family:'Sans Serif';vector-effect:non-scaling-stroke;fill:none;fill-opacity:1;fill-rule:evenodd;stroke:#000000;stroke-width:1;stroke-linecap:square;stroke-linejoin:bevel;stroke-opacity:1" />
  <path
     d="m 1913,1120 c 0,18.2254 -14.775,33 -33,33 -18.225,0 -33,-14.7746 -33,-33 0,-18.2254 14.775,-33 33,-33 18.225,0 33,14.7746 33,33"
     id="path290"
     inkscape:connector-curvature="0"
     style="font-style:normal;font-weight:400;font-size:medium;font-family:'Sans Serif';vector-effect:non-scaling-stroke;fill:none;fill-opacity:1;fill-rule:evenodd;stroke:#000000;stroke-width:1;stroke-linecap:square;stroke-linejoin:bevel;stroke-opacity:1" />
  <path
     d="m 1913,525 c 0,18.225 -14.775,33 -33,33 -18.225,0 -33,-14.775 -33,-33 0,-18.225 14.775,-33 33,-33 18.225,0 33,14.775 33,33"
     id="path306"
     inkscape:connector-curvature="0"
     style="font-style:normal;font-weight:400;font-size:medium;font-family:'Sans Serif';vector-effect:non-scaling-stroke;fill:none;fill-opacity:1;fill-rule:evenodd;stroke:#000000;stroke-width:1;stroke-linecap:square;stroke-linejoin:bevel;stroke-opacity:1" />
  <path
     d="m 838,1500 c 0,18.225 -14.775,33 -33,33 -18.225,0 -33,-14.775 -33,-33 0,-18.225 14.775,-33 33,-33 18.225,0 33,14.775 33,33"
     id="path322"
     inkscape:connector-curvature="0"
     style="font-style:normal;font-weight:400;font-size:medium;font-family:'Sans Serif';vector-effect:non-scaling-stroke;fill:none;fill-opacity:1;fill-rule:evenodd;stroke:#000000;stroke-width:1;stroke-linecap:square;stroke-linejoin:bevel;stroke-opacity:1" />
  <path
     d="m 418,1250 c 0,18.225 -14.77,33 -33,33 -18.23,0 -33,-14.775 -33,-33 0,-18.225 14.77,-33 33,-33 18.23,0 33,14.775 33,33"
     id="path338"
     inkscape:connector-curvature="0"
     style="font-style:normal;font-weight:400;font-size:medium;font-family:'Sans Serif';vector-effect:non-scaling-stroke;fill:none;fill-opacity:1;fill-rule:evenodd;stroke:#000000;stroke-width:1;stroke-linecap:square;stroke-linejoin:bevel;stroke-opacity:1" />
  <path
     d="m 838,600 c 0,18.225 -14.775,33 -33,33 -18.225,0 -33,-14.775 -33,-33 0,-18.225 14.775,-33 33,-33 18.225,0 33,14.775 33,33"
     id="path354"
     inkscape:connector-curvature="0"
     style="font-style:normal;font-weight:400;font-size:medium;font-family:'Sans Serif';vector-effect:non-scaling-stroke;fill:none;fill-opacity:1;fill-rule:evenodd;stroke:#000000;stroke-width:1;stroke-linecap:square;stroke-linejoin:bevel;stroke-opacity:1" />
  <path
     d="m 418,450 c 0,18.225 -14.77,33 -33,33 -18.23,0 -33,-14.775 -33,-33 0,-18.225 14.77,-33 33,-33 18.23,0 33,14.775 33,33"
     id="path370"
     inkscape:connector-curvature="0"
     style="font-style:normal;font-weight:400;font-size:medium;font-family:'Sans Serif';vector-effect:non-scaling-stroke;fill:none;fill-opacity:1;fill-rule:evenodd;stroke:#000000;stroke-width:1;stroke-linecap:square;stroke-linejoin:bevel;stroke-opacity:1" />
  <path
     d="m 618,1650 c 0,18.225 -14.775,33 -33,33 -18.225,0 -33,-14.775 -33,-33 0,-18.225 14.775,-33 33,-33 18.225,0 33,14.775 33,33"
     id="path386"
     inkscape:connector-curvature="0"
     style="font-style:normal;font-weight:400;font-size:medium;font-family:'Sans Serif';vector-effect:non-scaling-stroke;fill:none;fill-opacity:1;fill-rule:evenodd;stroke:#000000;stroke-width:1;stroke-linecap:square;stroke-linejoin:bevel;stroke-opacity:1" />
</svg>
