<?xml version="1.0" encoding="UTF-8" standalone="no"?>
<svg
   xmlns:dc="http://purl.org/dc/elements/1.1/"
   xmlns:cc="http://creativecommons.org/ns#"
   xmlns:rdf="http://www.w3.org/1999/02/22-rdf-syntax-ns#"
   xmlns:svg="http://www.w3.org/2000/svg"
   xmlns="http://www.w3.org/2000/svg"
   xmlns:sodipodi="http://sodipodi.sourceforge.net/DTD/sodipodi-0.dtd"
   xmlns:inkscape="http://www.inkscape.org/namespaces/inkscape"
   width="297mm"
   height="210mm"
   viewBox="0 0 2970 2100"
   version="1.2"
   id="svg1092"
   sodipodi:docname="BaseIn.svg"
   inkscape:version="0.92.2 (5c3e80d, 2017-08-06)">
  <metadata
     id="metadata1096">
    <rdf:RDF>
      <cc:Work
         rdf:about="">
        <dc:format>image/svg+xml</dc:format>
        <dc:type
           rdf:resource="http://purl.org/dc/dcmitype/StillImage" />
      </cc:Work>
    </rdf:RDF>
  </metadata>
  <sodipodi:namedview
     pagecolor="#ffffff"
     bordercolor="#666666"
     borderopacity="1"
     objecttolerance="10"
     gridtolerance="10"
     guidetolerance="10"
     inkscape:pageopacity="0"
     inkscape:pageshadow="2"
     inkscape:window-width="1920"
     inkscape:window-height="1015"
     id="namedview1094"
     showgrid="false"
     inkscape:zoom="0.41323289"
     inkscape:cx="-172.32964"
     inkscape:cy="598.9899"
     inkscape:window-x="0"
     inkscape:window-y="0"
     inkscape:window-maximized="1"
     inkscape:current-layer="svg1092" />
  <title
     id="title2">FreeCAD SVG Export</title>
  <desc
     id="desc4">Drawing page: Page010 exported from FreeCAD document: BreadBoardBox</desc>
  <defs
     id="defs6" />
  <path
     d="m 2811.97,1656.05 v 230 h -330 v -80 h -400 v 80 h -400 v -80 h -400 v 80 h -400 v -80 h -400 v 80 h -330 v -230 h 80 v -400 h -80 v -400 h 80 v -400 h -80 v -230 h 330 v 80 h 400 v -80 h 400 v 80 h 400 v -80 h 400 v 80 h 400 v -80 h 330 v 230 h -80 v 400 h 80 v 400 h -80 v 400 h 80"
     id="path50"
     inkscape:connector-curvature="0"
     style="font-style:normal;font-weight:400;font-size:medium;font-family:'Sans Serif';vector-effect:non-scaling-stroke;fill:none;fill-opacity:1;fill-rule:evenodd;stroke:#000000;stroke-width:1;stroke-linecap:square;stroke-linejoin:bevel;stroke-opacity:1" />
  <path
     d="m 398.47,856.05 c 0,9.113 -7.39,16.5 -16.5,16.5 -9.11,0 -16.5,-7.387 -16.5,-16.5 0,-9.113 7.39,-16.5 16.5,-16.5 9.11,0 16.5,7.387 16.5,16.5"
     id="path66"
     inkscape:connector-curvature="0"
     style="font-style:normal;font-weight:400;font-size:medium;font-family:'Sans Serif';vector-effect:non-scaling-stroke;fill:none;fill-opacity:1;fill-rule:evenodd;stroke:#000000;stroke-width:1;stroke-linecap:square;stroke-linejoin:bevel;stroke-opacity:1" />
  <path
     d="m 858.47,1506.05 c 0,9.113 -7.387,16.5 -16.5,16.5 -9.113,0 -16.5,-7.387 -16.5,-16.5 0,-9.113 7.387,-16.5 16.5,-16.5 9.113,0 16.5,7.387 16.5,16.5"
     id="path82"
     inkscape:connector-curvature="0"
     style="font-style:normal;font-weight:400;font-size:medium;font-family:'Sans Serif';vector-effect:non-scaling-stroke;fill:none;fill-opacity:1;fill-rule:evenodd;stroke:#000000;stroke-width:1;stroke-linecap:square;stroke-linejoin:bevel;stroke-opacity:1" />
  <path
     d="m 598.47,1456.05 c 0,9.113 -7.387,16.5 -16.5,16.5 -9.113,0 -16.5,-7.387 -16.5,-16.5 0,-9.113 7.387,-16.5 16.5,-16.5 9.113,0 16.5,7.387 16.5,16.5"
     id="path98"
     inkscape:connector-curvature="0"
     style="font-style:normal;font-weight:400;font-size:medium;font-family:'Sans Serif';vector-effect:non-scaling-stroke;fill:none;fill-opacity:1;fill-rule:evenodd;stroke:#000000;stroke-width:1;stroke-linecap:square;stroke-linejoin:bevel;stroke-opacity:1" />
  <path
     d="m 398.47,456.05 c 0,9.113 -7.39,16.5 -16.5,16.5 -9.11,0 -16.5,-7.387 -16.5,-16.5 0,-9.113 7.39,-16.5 16.5,-16.5 9.11,0 16.5,7.387 16.5,16.5"
     id="path114"
     inkscape:connector-curvature="0"
     style="font-style:normal;font-weight:400;font-size:medium;font-family:'Sans Serif';vector-effect:non-scaling-stroke;fill:none;fill-opacity:1;fill-rule:evenodd;stroke:#000000;stroke-width:1;stroke-linecap:square;stroke-linejoin:bevel;stroke-opacity:1" />
  <path
     d="m 398.47,1456.05 c 0,9.113 -7.39,16.5 -16.5,16.5 -9.11,0 -16.5,-7.387 -16.5,-16.5 0,-9.113 7.39,-16.5 16.5,-16.5 9.11,0 16.5,7.387 16.5,16.5"
     id="path130"
     inkscape:connector-curvature="0"
     style="font-style:normal;font-weight:400;font-size:medium;font-family:'Sans Serif';vector-effect:non-scaling-stroke;fill:none;fill-opacity:1;fill-rule:evenodd;stroke:#000000;stroke-width:1;stroke-linecap:square;stroke-linejoin:bevel;stroke-opacity:1" />
  <path
     d="m 598.47,656.05 c 0,9.113 -7.387,16.5 -16.5,16.5 -9.113,0 -16.5,-7.387 -16.5,-16.5 0,-9.113 7.387,-16.5 16.5,-16.5 9.113,0 16.5,7.387 16.5,16.5"
     id="path146"
     inkscape:connector-curvature="0"
     style="font-style:normal;font-weight:400;font-size:medium;font-family:'Sans Serif';vector-effect:non-scaling-stroke;fill:none;fill-opacity:1;fill-rule:evenodd;stroke:#000000;stroke-width:1;stroke-linecap:square;stroke-linejoin:bevel;stroke-opacity:1" />
  <path
     d="m 858.47,606.05 c 0,9.113 -7.387,16.5 -16.5,16.5 -9.113,0 -16.5,-7.387 -16.5,-16.5 0,-9.113 7.387,-16.5 16.5,-16.5 9.113,0 16.5,7.387 16.5,16.5"
     id="path162"
     inkscape:connector-curvature="0"
     style="font-style:normal;font-weight:400;font-size:medium;font-family:'Sans Serif';vector-effect:non-scaling-stroke;fill:none;fill-opacity:1;fill-rule:evenodd;stroke:#000000;stroke-width:1;stroke-linecap:square;stroke-linejoin:bevel;stroke-opacity:1" />
  <path
     d="m 1893.47,1541.05 c 0,9.113 -7.387,16.5 -16.5,16.5 -9.113,0 -16.5,-7.387 -16.5,-16.5 0,-9.113 7.387,-16.5 16.5,-16.5 9.113,0 16.5,7.387 16.5,16.5"
     id="path178"
     inkscape:connector-curvature="0"
     style="font-style:normal;font-weight:400;font-size:medium;font-family:'Sans Serif';vector-effect:non-scaling-stroke;fill:none;fill-opacity:1;fill-rule:evenodd;stroke:#000000;stroke-width:1;stroke-linecap:square;stroke-linejoin:bevel;stroke-opacity:1" />
  <path
     d="m 598.47,1656.05 c 0,9.113 -7.387,16.5 -16.5,16.5 -9.113,0 -16.5,-7.387 -16.5,-16.5 0,-9.113 7.387,-16.5 16.5,-16.5 9.113,0 16.5,7.387 16.5,16.5"
     id="path194"
     inkscape:connector-curvature="0"
     style="font-style:normal;font-weight:400;font-size:medium;font-family:'Sans Serif';vector-effect:non-scaling-stroke;fill:none;fill-opacity:1;fill-rule:evenodd;stroke:#000000;stroke-width:1;stroke-linecap:square;stroke-linejoin:bevel;stroke-opacity:1" />
  <path
     d="m 598.47,1056.05 c 0,9.1127 -7.387,16.5 -16.5,16.5 -9.113,0 -16.5,-7.3873 -16.5,-16.5 0,-9.1127 7.387,-16.5 16.5,-16.5 9.113,0 16.5,7.3873 16.5,16.5"
     id="path210"
     inkscape:connector-curvature="0"
     style="font-style:normal;font-weight:400;font-size:medium;font-family:'Sans Serif';vector-effect:non-scaling-stroke;fill:none;fill-opacity:1;fill-rule:evenodd;stroke:#000000;stroke-width:1;stroke-linecap:square;stroke-linejoin:bevel;stroke-opacity:1" />
  <path
     d="m 398.47,1056.05 c 0,9.1127 -7.39,16.5 -16.5,16.5 -9.11,0 -16.5,-7.3873 -16.5,-16.5 0,-9.1127 7.39,-16.5 16.5,-16.5 9.11,0 16.5,7.3873 16.5,16.5"
     id="path226"
     inkscape:connector-curvature="0"
     style="font-style:normal;font-weight:400;font-size:medium;font-family:'Sans Serif';vector-effect:non-scaling-stroke;fill:none;fill-opacity:1;fill-rule:evenodd;stroke:#000000;stroke-width:1;stroke-linecap:square;stroke-linejoin:bevel;stroke-opacity:1" />
  <path
     d="m 1893.47,1026.05 c 0,9.1127 -7.387,16.5 -16.5,16.5 -9.113,0 -16.5,-7.3873 -16.5,-16.5 0,-9.1127 7.387,-16.5 16.5,-16.5 9.113,0 16.5,7.3873 16.5,16.5"
     id="path242"
     inkscape:connector-curvature="0"
     style="font-style:normal;font-weight:400;font-size:medium;font-family:'Sans Serif';vector-effect:non-scaling-stroke;fill:none;fill-opacity:1;fill-rule:evenodd;stroke:#000000;stroke-width:1;stroke-linecap:square;stroke-linejoin:bevel;stroke-opacity:1" />
  <path
     d="m 858.47,1056.05 c 0,9.1127 -7.387,16.5 -16.5,16.5 -9.113,0 -16.5,-7.3873 -16.5,-16.5 0,-9.1127 7.387,-16.5 16.5,-16.5 9.113,0 16.5,7.3873 16.5,16.5"
     id="path258"
     inkscape:connector-curvature="0"
     style="font-style:normal;font-weight:400;font-size:medium;font-family:'Sans Serif';vector-effect:non-scaling-stroke;fill:none;fill-opacity:1;fill-rule:evenodd;stroke:#000000;stroke-width:1;stroke-linecap:square;stroke-linejoin:bevel;stroke-opacity:1" />
  <path
     d="m 1893.47,1086.05 c 0,9.1127 -7.387,16.5 -16.5,16.5 -9.113,0 -16.5,-7.3873 -16.5,-16.5 0,-9.1127 7.387,-16.5 16.5,-16.5 9.113,0 16.5,7.3873 16.5,16.5"
     id="path274"
     inkscape:connector-curvature="0"
     style="font-style:normal;font-weight:400;font-size:medium;font-family:'Sans Serif';vector-effect:non-scaling-stroke;fill:none;fill-opacity:1;fill-rule:evenodd;stroke:#000000;stroke-width:1;stroke-linecap:square;stroke-linejoin:bevel;stroke-opacity:1" />
  <path
     d="m 398.47,1256.05 c 0,9.113 -7.39,16.5 -16.5,16.5 -9.11,0 -16.5,-7.387 -16.5,-16.5 0,-9.113 7.39,-16.5 16.5,-16.5 9.11,0 16.5,7.387 16.5,16.5"
     id="path290"
     inkscape:connector-curvature="0"
     style="font-style:normal;font-weight:400;font-size:medium;font-family:'Sans Serif';vector-effect:non-scaling-stroke;fill:none;fill-opacity:1;fill-rule:evenodd;stroke:#000000;stroke-width:1;stroke-linecap:square;stroke-linejoin:bevel;stroke-opacity:1" />
  <path
     d="m 598.47,856.05 c 0,9.113 -7.387,16.5 -16.5,16.5 -9.113,0 -16.5,-7.387 -16.5,-16.5 0,-9.113 7.387,-16.5 16.5,-16.5 9.113,0 16.5,7.387 16.5,16.5"
     id="path306"
     inkscape:connector-curvature="0"
     style="font-style:normal;font-weight:400;font-size:medium;font-family:'Sans Serif';vector-effect:non-scaling-stroke;fill:none;fill-opacity:1;fill-rule:evenodd;stroke:#000000;stroke-width:1;stroke-linecap:square;stroke-linejoin:bevel;stroke-opacity:1" />
  <path
     d="m 598.47,456.05 c 0,9.113 -7.387,16.5 -16.5,16.5 -9.113,0 -16.5,-7.387 -16.5,-16.5 0,-9.113 7.387,-16.5 16.5,-16.5 9.113,0 16.5,7.387 16.5,16.5"
     id="path322"
     inkscape:connector-curvature="0"
     style="font-style:normal;font-weight:400;font-size:medium;font-family:'Sans Serif';vector-effect:non-scaling-stroke;fill:none;fill-opacity:1;fill-rule:evenodd;stroke:#000000;stroke-width:1;stroke-linecap:square;stroke-linejoin:bevel;stroke-opacity:1" />
  <path
     d="m 598.47,1256.05 c 0,9.113 -7.387,16.5 -16.5,16.5 -9.113,0 -16.5,-7.387 -16.5,-16.5 0,-9.113 7.387,-16.5 16.5,-16.5 9.113,0 16.5,7.387 16.5,16.5"
     id="path338"
     inkscape:connector-curvature="0"
     style="font-style:normal;font-weight:400;font-size:medium;font-family:'Sans Serif';vector-effect:non-scaling-stroke;fill:none;fill-opacity:1;fill-rule:evenodd;stroke:#000000;stroke-width:1;stroke-linecap:square;stroke-linejoin:bevel;stroke-opacity:1" />
  <path
     d="m 1893.47,571.05 c 0,9.113 -7.387,16.5 -16.5,16.5 -9.113,0 -16.5,-7.387 -16.5,-16.5 0,-9.113 7.387,-16.5 16.5,-16.5 9.113,0 16.5,7.387 16.5,16.5"
     id="path354"
     inkscape:connector-curvature="0"
     style="font-style:normal;font-weight:400;font-size:medium;font-family:'Sans Serif';vector-effect:non-scaling-stroke;fill:none;fill-opacity:1;fill-rule:evenodd;stroke:#000000;stroke-width:1;stroke-linecap:square;stroke-linejoin:bevel;stroke-opacity:1" />
  <path
     d="m 398.47,656.05 c 0,9.113 -7.39,16.5 -16.5,16.5 -9.11,0 -16.5,-7.387 -16.5,-16.5 0,-9.113 7.39,-16.5 16.5,-16.5 9.11,0 16.5,7.387 16.5,16.5"
     id="path370"
     inkscape:connector-curvature="0"
     style="font-style:normal;font-weight:400;font-size:medium;font-family:'Sans Serif';vector-effect:non-scaling-stroke;fill:none;fill-opacity:1;fill-rule:evenodd;stroke:#000000;stroke-width:1;stroke-linecap:square;stroke-linejoin:bevel;stroke-opacity:1" />
  <path
     d="m 398.47,1656.05 c 0,9.113 -7.39,16.5 -16.5,16.5 -9.11,0 -16.5,-7.387 -16.5,-16.5 0,-9.113 7.39,-16.5 16.5,-16.5 9.11,0 16.5,7.387 16.5,16.5"
     id="path386"
     inkscape:connector-curvature="0"
     style="font-style:normal;font-weight:400;font-size:medium;font-family:'Sans Serif';vector-effect:non-scaling-stroke;fill:none;fill-opacity:1;fill-rule:evenodd;stroke:#000000;stroke-width:1;stroke-linecap:square;stroke-linejoin:bevel;stroke-opacity:1" />
</svg>
