<?xml version="1.0" encoding="UTF-8" standalone="no"?>
<svg
   xmlns:dc="http://purl.org/dc/elements/1.1/"
   xmlns:cc="http://creativecommons.org/ns#"
   xmlns:rdf="http://www.w3.org/1999/02/22-rdf-syntax-ns#"
   xmlns:svg="http://www.w3.org/2000/svg"
   xmlns="http://www.w3.org/2000/svg"
   xmlns:sodipodi="http://sodipodi.sourceforge.net/DTD/sodipodi-0.dtd"
   xmlns:inkscape="http://www.inkscape.org/namespaces/inkscape"
   width="297mm"
   height="210mm"
   viewBox="0 0 2970 2100"
   version="1.2"
   id="svg388"
   sodipodi:docname="BottomOut.svg"
   inkscape:version="0.92.2 (5c3e80d, 2017-08-06)">
  <metadata
     id="metadata392">
    <rdf:RDF>
      <cc:Work
         rdf:about="">
        <dc:format>image/svg+xml</dc:format>
        <dc:type
           rdf:resource="http://purl.org/dc/dcmitype/StillImage" />
      </cc:Work>
    </rdf:RDF>
  </metadata>
  <sodipodi:namedview
     pagecolor="#ffffff"
     bordercolor="#666666"
     borderopacity="1"
     objecttolerance="10"
     gridtolerance="10"
     guidetolerance="10"
     inkscape:pageopacity="0"
     inkscape:pageshadow="2"
     inkscape:window-width="1920"
     inkscape:window-height="1015"
     id="namedview390"
     showgrid="false"
     inkscape:zoom="1.1687991"
     inkscape:cx="640.90181"
     inkscape:cy="204.47326"
     inkscape:window-x="0"
     inkscape:window-y="0"
     inkscape:window-maximized="1"
     inkscape:current-layer="svg388" />
  <title
     id="title2">FreeCAD SVG Export</title>
  <desc
     id="desc4">Drawing page: Page001 exported from FreeCAD document: Unnamed</desc>
  <defs
     id="defs6" />
  <path
     d="m 2815,970 v 120 h -80 v 155 h -250 v 80 h -400 v -80 h -400 v 80 h -400 v -80 H 885 v 80 H 485 v -80 H 235 V 1090 H 155 V 970 h 80 V 815 h 250 v -40 h 400 v 40 h 400 v -40 h 400 v 40 h 400 v -40 h 400 v 40 h 250 v 155 h 80"
     id="path50"
     inkscape:connector-curvature="0"
     style="font-style:normal;font-weight:400;font-size:medium;font-family:'Sans Serif';vector-effect:non-scaling-stroke;fill:none;fill-opacity:1;fill-rule:evenodd;stroke:#000000;stroke-width:1;stroke-linecap:square;stroke-linejoin:bevel;stroke-opacity:1" />
  <path
     d="m 1123,975 c 0,18.2254 -14.775,33 -33,33 -18.225,0 -33,-14.7746 -33,-33 0,-18.2254 14.775,-33 33,-33 18.225,0 33,14.7746 33,33"
     id="path66"
     inkscape:connector-curvature="0"
     style="font-style:normal;font-weight:400;font-size:medium;font-family:'Sans Serif';vector-effect:non-scaling-stroke;fill:none;fill-opacity:1;fill-rule:evenodd;stroke:#000000;stroke-width:1;stroke-linecap:square;stroke-linejoin:bevel;stroke-opacity:1" />
</svg>
