<?xml version="1.0" encoding="UTF-8" standalone="no"?>
<svg width="297mm" height="210mm"
 viewBox="0 0 2970 2100"
 xmlns="http://www.w3.org/2000/svg" xmlns:xlink="http://www.w3.org/1999/xlink"  version="1.2" baseProfile="tiny">
<title>FreeCAD SVG Export</title>
<desc>Drawing page: Page005 exported from FreeCAD document: BreadBoardBox</desc>
<defs>
</defs>
<g fill="none" stroke="black" stroke-width="1" fill-rule="evenodd" stroke-linecap="square" stroke-linejoin="bevel" >

<g fill="none" stroke="#000000" stroke-opacity="1" stroke-width="1" stroke-linecap="square" stroke-linejoin="bevel" transform="matrix(1,0,0,1,0,0)"
font-family="Sans Serif" font-size="31.75" font-weight="400" font-style="normal" 
>
</g>

<g fill="none" stroke="#000000" stroke-opacity="1" stroke-width="1" stroke-linecap="square" stroke-linejoin="bevel" transform="matrix(1,0,0,1,0,2100)"
font-family="Sans Serif" font-size="31.75" font-weight="400" font-style="normal" 
>
</g>

<g fill="none" stroke="#000000" stroke-opacity="1" stroke-width="1" stroke-linecap="square" stroke-linejoin="bevel" transform="matrix(1,0,0,1,0,2100)"
font-family="Sans Serif" font-size="31.75" font-weight="400" font-style="normal" 
>
</g>

<g fill="none" stroke="#000000" stroke-opacity="1" stroke-width="1" stroke-linecap="square" stroke-linejoin="bevel" transform="matrix(2.82319,0,0,2.82258,0,0)"
font-family="Sans Serif" font-size="31.75" font-weight="400" font-style="normal" 
>
</g>

<g fill="none" stroke="#000000" stroke-opacity="1" stroke-width="1" stroke-linecap="square" stroke-linejoin="bevel" transform="matrix(2.82319,0,0,2.82258,0,0)"
font-family="Sans Serif" font-size="31.75" font-weight="400" font-style="normal" 
>
</g>

<g fill="none" stroke="#000000" stroke-opacity="1" stroke-width="1" stroke-linecap="square" stroke-linejoin="bevel" transform="matrix(2.82319,0,0,2.82258,0,0)"
font-family="Sans Serif" font-size="31.75" font-weight="400" font-style="normal" 
>
</g>

<g fill="none" stroke="#000000" stroke-opacity="1" stroke-width="1" stroke-linecap="square" stroke-linejoin="bevel" transform="matrix(2.82319,0,0,2.82258,0,0)"
font-family="Sans Serif" font-size="31.75" font-weight="400" font-style="normal" 
>
</g>

<g fill="none" stroke="#000000" stroke-opacity="1" stroke-width="1" stroke-linecap="square" stroke-linejoin="bevel" transform="matrix(1,0,0,1,0,0)"
font-family="Sans Serif" font-size="31.75" font-weight="400" font-style="normal" 
>
</g>

<g fill="none" stroke="#000000" stroke-opacity="1" stroke-width="1" stroke-linecap="square" stroke-linejoin="bevel" transform="matrix(2.82319,0,0,2.82258,0,0)"
font-family="Sans Serif" font-size="31.75" font-weight="400" font-style="normal" 
>
</g>

<g fill="none" stroke="#000000" stroke-opacity="1" stroke-width="1" stroke-linecap="square" stroke-linejoin="bevel" transform="matrix(1,0,0,1,1485,1050)"
font-family="Sans Serif" font-size="31.75" font-weight="400" font-style="normal" 
>
</g>

<g fill="none" stroke="#000000" stroke-opacity="1" stroke-width="1" stroke-linecap="square" stroke-linejoin="bevel" transform="matrix(1,0,0,1,1485,1050)"
font-family="Sans Serif" font-size="31.75" font-weight="400" font-style="normal" 
>
</g>

<g fill="none" stroke="#000000" stroke-opacity="1" stroke-width="1" stroke-linecap="square" stroke-linejoin="bevel" transform="matrix(1,0,0,1,1481,1345.5)"
font-family="Sans Serif" font-size="31.75" font-weight="400" font-style="normal" 
>
</g>

<g fill="none" stroke="#000000" stroke-opacity="1" stroke-width="1" stroke-linecap="square" stroke-linejoin="bevel" transform="matrix(0.353,0,0,0.353,1473,1402.86)"
font-family="Sans Serif" font-size="31.75" font-weight="400" font-style="normal" 
>
</g>

<g fill="none" stroke="#000000" stroke-opacity="1" stroke-width="1" stroke-linecap="square" stroke-linejoin="bevel" transform="matrix(0.353,0,0,0.353,1473,1402.86)"
font-family="Sans Serif" font-size="31.75" font-weight="400" font-style="normal" 
>
</g>

<g fill="none" stroke="#000000" stroke-opacity="1" stroke-width="1" stroke-linecap="square" stroke-linejoin="bevel" transform="matrix(0.353,0,0,0.353,1473,1402.86)"
font-family="Sans Serif" font-size="31.75" font-weight="400" font-style="normal" 
>
</g>

<g fill="none" stroke="#000000" stroke-opacity="1" stroke-width="1" stroke-linecap="square" stroke-linejoin="bevel" transform="matrix(0.353,0,0,0.353,1473,1402.86)"
font-family="Sans Serif" font-size="31.75" font-weight="400" font-style="normal" 
>
</g>

<g fill="none" stroke="#000000" stroke-opacity="1" stroke-width="1" stroke-linecap="square" stroke-linejoin="bevel" transform="matrix(1,0,0,1,0,0)"
font-family="Sans Serif" font-size="31.75" font-weight="400" font-style="normal" 
>
</g>

<g fill="none" stroke="#000000" stroke-opacity="1" stroke-width="1" stroke-linecap="square" stroke-linejoin="bevel" transform="matrix(0.353,0,0,0.353,1473,1402.86)"
font-family="Sans Serif" font-size="31.75" font-weight="400" font-style="normal" 
>
</g>

<g fill="none" stroke="#000000" stroke-opacity="1" stroke-width="1" stroke-linecap="square" stroke-linejoin="bevel" transform="matrix(0.353,0,0,0.353,1473,1402.86)"
font-family="Sans Serif" font-size="31.75" font-weight="400" font-style="normal" 
>
</g>

<g fill="none" stroke="#000000" stroke-opacity="1" stroke-width="1" stroke-linecap="square" stroke-linejoin="bevel" transform="matrix(1,0,0,1,1481,1345.5)"
font-family="Sans Serif" font-size="31.75" font-weight="400" font-style="normal" 
>
</g>

<g fill="none" stroke="#000000" stroke-opacity="1" stroke-width="1" stroke-linecap="square" stroke-linejoin="bevel" transform="matrix(1,0,0,1,1485,1050)"
font-family="Sans Serif" font-size="31.75" font-weight="400" font-style="normal" 
>
</g>

<g fill="#ffffff" fill-opacity="1" stroke="none" transform="matrix(1,0,0,1,1485,1050)"
font-family="Sans Serif" font-size="31.75" font-weight="400" font-style="normal" 
>
<path vector-effect="non-scaling-stroke" fill-rule="evenodd" d="M830,40 L830,195 L600,195 L600,275 L200,275 L200,195 L-200,195 L-200,275 L-600,275 L-600,195 L-830,195 L-830,40 L-750,40 L-750,-80 L-830,-80 L-830,-235 L-600,-235 L-600,-275 L-200,-275 L-200,-235 L200,-235 L200,-275 L600,-275 L600,-235 L830,-235 L830,-80 L750,-80 L750,40 L830,40"/>
</g>

<g fill="none" stroke="#000000" stroke-opacity="1" stroke-width="1" stroke-linecap="square" stroke-linejoin="bevel" transform="matrix(1,0,0,1,1485,1050)"
font-family="Sans Serif" font-size="31.75" font-weight="400" font-style="normal" 
>
</g>

<g fill="none" stroke="#000000" stroke-opacity="1" stroke-width="1" stroke-linecap="square" stroke-linejoin="bevel" transform="matrix(1,0,0,1,1485,1050)"
font-family="Sans Serif" font-size="31.75" font-weight="400" font-style="normal" 
>
</g>

<g fill="none" stroke="#000000" stroke-opacity="1" stroke-width="1" stroke-linecap="square" stroke-linejoin="bevel" transform="matrix(1,0,0,1,1485,1050)"
font-family="Sans Serif" font-size="31.75" font-weight="400" font-style="normal" 
>
</g>

<g fill="none" stroke="#000000" stroke-opacity="1" stroke-width="1" stroke-linecap="square" stroke-linejoin="bevel" transform="matrix(1,0,0,1,0,0)"
font-family="Sans Serif" font-size="31.75" font-weight="400" font-style="normal" 
>
</g>

<g fill="none" stroke="#000000" stroke-opacity="1" stroke-width="1" stroke-linecap="square" stroke-linejoin="bevel" transform="matrix(1,0,0,1,1485,1050)"
font-family="Sans Serif" font-size="31.75" font-weight="400" font-style="normal" 
>
</g>

<g fill="none" stroke="#000000" stroke-opacity="1" stroke-width="1" stroke-linecap="square" stroke-linejoin="bevel" transform="matrix(1,0,0,1,1485,1050)"
font-family="Sans Serif" font-size="31.75" font-weight="400" font-style="normal" 
>
</g>

<g fill="none" stroke="#000000" stroke-opacity="1" stroke-width="7" stroke-linecap="round" stroke-linejoin="bevel" transform="matrix(1,0,0,1,1485,1050)"
font-family="Sans Serif" font-size="31.75" font-weight="400" font-style="normal" 
>
<path vector-effect="none" fill-rule="evenodd" d="M-600,-275 L-200,-275"/>
</g>

<g fill="none" stroke="#000000" stroke-opacity="1" stroke-width="1" stroke-linecap="square" stroke-linejoin="bevel" transform="matrix(1,0,0,1,1485,1050)"
font-family="Sans Serif" font-size="31.75" font-weight="400" font-style="normal" 
>
</g>

<g fill="none" stroke="#000000" stroke-opacity="1" stroke-width="1" stroke-linecap="square" stroke-linejoin="bevel" transform="matrix(1,0,0,1,1485,1050)"
font-family="Sans Serif" font-size="31.75" font-weight="400" font-style="normal" 
>
</g>

<g fill="none" stroke="#000000" stroke-opacity="1" stroke-width="7" stroke-linecap="round" stroke-linejoin="bevel" transform="matrix(1,0,0,1,1485,1050)"
font-family="Sans Serif" font-size="31.75" font-weight="400" font-style="normal" 
>
<path vector-effect="none" fill-rule="evenodd" d="M-200,-275 L-200,-235"/>
</g>

<g fill="none" stroke="#000000" stroke-opacity="1" stroke-width="1" stroke-linecap="square" stroke-linejoin="bevel" transform="matrix(1,0,0,1,1485,1050)"
font-family="Sans Serif" font-size="31.75" font-weight="400" font-style="normal" 
>
</g>

<g fill="none" stroke="#000000" stroke-opacity="1" stroke-width="1" stroke-linecap="square" stroke-linejoin="bevel" transform="matrix(1,0,0,1,1485,1050)"
font-family="Sans Serif" font-size="31.75" font-weight="400" font-style="normal" 
>
</g>

<g fill="none" stroke="#000000" stroke-opacity="1" stroke-width="7" stroke-linecap="round" stroke-linejoin="bevel" transform="matrix(1,0,0,1,1485,1050)"
font-family="Sans Serif" font-size="31.75" font-weight="400" font-style="normal" 
>
<path vector-effect="none" fill-rule="evenodd" d="M-600,-235 L-600,-275"/>
</g>

<g fill="none" stroke="#000000" stroke-opacity="1" stroke-width="1" stroke-linecap="square" stroke-linejoin="bevel" transform="matrix(1,0,0,1,1485,1050)"
font-family="Sans Serif" font-size="31.75" font-weight="400" font-style="normal" 
>
</g>

<g fill="none" stroke="#000000" stroke-opacity="1" stroke-width="1" stroke-linecap="square" stroke-linejoin="bevel" transform="matrix(1,0,0,1,1485,1050)"
font-family="Sans Serif" font-size="31.75" font-weight="400" font-style="normal" 
>
</g>

<g fill="none" stroke="#000000" stroke-opacity="1" stroke-width="7" stroke-linecap="round" stroke-linejoin="bevel" transform="matrix(1,0,0,1,1485,1050)"
font-family="Sans Serif" font-size="31.75" font-weight="400" font-style="normal" 
>
<path vector-effect="none" fill-rule="evenodd" d="M-830,-235 L-600,-235"/>
</g>

<g fill="none" stroke="#000000" stroke-opacity="1" stroke-width="1" stroke-linecap="square" stroke-linejoin="bevel" transform="matrix(1,0,0,1,1485,1050)"
font-family="Sans Serif" font-size="31.75" font-weight="400" font-style="normal" 
>
</g>

<g fill="none" stroke="#000000" stroke-opacity="1" stroke-width="1" stroke-linecap="square" stroke-linejoin="bevel" transform="matrix(1,0,0,1,1485,1050)"
font-family="Sans Serif" font-size="31.75" font-weight="400" font-style="normal" 
>
</g>

<g fill="none" stroke="#000000" stroke-opacity="1" stroke-width="7" stroke-linecap="round" stroke-linejoin="bevel" transform="matrix(1,0,0,1,1485,1050)"
font-family="Sans Serif" font-size="31.75" font-weight="400" font-style="normal" 
>
<path vector-effect="none" fill-rule="evenodd" d="M-830,-80 L-830,-235"/>
</g>

<g fill="none" stroke="#000000" stroke-opacity="1" stroke-width="1" stroke-linecap="square" stroke-linejoin="bevel" transform="matrix(1,0,0,1,1485,1050)"
font-family="Sans Serif" font-size="31.75" font-weight="400" font-style="normal" 
>
</g>

<g fill="none" stroke="#000000" stroke-opacity="1" stroke-width="1" stroke-linecap="square" stroke-linejoin="bevel" transform="matrix(1,0,0,1,1485,1050)"
font-family="Sans Serif" font-size="31.75" font-weight="400" font-style="normal" 
>
</g>

<g fill="none" stroke="#000000" stroke-opacity="1" stroke-width="7" stroke-linecap="round" stroke-linejoin="bevel" transform="matrix(1,0,0,1,1485,1050)"
font-family="Sans Serif" font-size="31.75" font-weight="400" font-style="normal" 
>
<path vector-effect="none" fill-rule="evenodd" d="M-750,-80 L-830,-80"/>
</g>

<g fill="none" stroke="#000000" stroke-opacity="1" stroke-width="1" stroke-linecap="square" stroke-linejoin="bevel" transform="matrix(1,0,0,1,1485,1050)"
font-family="Sans Serif" font-size="31.75" font-weight="400" font-style="normal" 
>
</g>

<g fill="none" stroke="#000000" stroke-opacity="1" stroke-width="1" stroke-linecap="square" stroke-linejoin="bevel" transform="matrix(1,0,0,1,1485,1050)"
font-family="Sans Serif" font-size="31.75" font-weight="400" font-style="normal" 
>
</g>

<g fill="none" stroke="#000000" stroke-opacity="1" stroke-width="7" stroke-linecap="round" stroke-linejoin="bevel" transform="matrix(1,0,0,1,1485,1050)"
font-family="Sans Serif" font-size="31.75" font-weight="400" font-style="normal" 
>
<path vector-effect="none" fill-rule="evenodd" d="M-750,40 L-750,-80"/>
</g>

<g fill="none" stroke="#000000" stroke-opacity="1" stroke-width="1" stroke-linecap="square" stroke-linejoin="bevel" transform="matrix(1,0,0,1,1485,1050)"
font-family="Sans Serif" font-size="31.75" font-weight="400" font-style="normal" 
>
</g>

<g fill="none" stroke="#000000" stroke-opacity="1" stroke-width="1" stroke-linecap="square" stroke-linejoin="bevel" transform="matrix(1,0,0,1,1485,1050)"
font-family="Sans Serif" font-size="31.75" font-weight="400" font-style="normal" 
>
</g>

<g fill="none" stroke="#000000" stroke-opacity="1" stroke-width="7" stroke-linecap="round" stroke-linejoin="bevel" transform="matrix(1,0,0,1,1485,1050)"
font-family="Sans Serif" font-size="31.75" font-weight="400" font-style="normal" 
>
<path vector-effect="none" fill-rule="evenodd" d="M-830,40 L-750,40"/>
</g>

<g fill="none" stroke="#000000" stroke-opacity="1" stroke-width="1" stroke-linecap="square" stroke-linejoin="bevel" transform="matrix(1,0,0,1,1485,1050)"
font-family="Sans Serif" font-size="31.75" font-weight="400" font-style="normal" 
>
</g>

<g fill="none" stroke="#000000" stroke-opacity="1" stroke-width="1" stroke-linecap="square" stroke-linejoin="bevel" transform="matrix(1,0,0,1,1485,1050)"
font-family="Sans Serif" font-size="31.75" font-weight="400" font-style="normal" 
>
</g>

<g fill="none" stroke="#000000" stroke-opacity="1" stroke-width="7" stroke-linecap="round" stroke-linejoin="bevel" transform="matrix(1,0,0,1,1485,1050)"
font-family="Sans Serif" font-size="31.75" font-weight="400" font-style="normal" 
>
<path vector-effect="none" fill-rule="evenodd" d="M-830,195 L-830,40"/>
</g>

<g fill="none" stroke="#000000" stroke-opacity="1" stroke-width="1" stroke-linecap="square" stroke-linejoin="bevel" transform="matrix(1,0,0,1,1485,1050)"
font-family="Sans Serif" font-size="31.75" font-weight="400" font-style="normal" 
>
</g>

<g fill="none" stroke="#000000" stroke-opacity="1" stroke-width="1" stroke-linecap="square" stroke-linejoin="bevel" transform="matrix(1,0,0,1,1485,1050)"
font-family="Sans Serif" font-size="31.75" font-weight="400" font-style="normal" 
>
</g>

<g fill="none" stroke="#000000" stroke-opacity="1" stroke-width="7" stroke-linecap="round" stroke-linejoin="bevel" transform="matrix(1,0,0,1,1485,1050)"
font-family="Sans Serif" font-size="31.75" font-weight="400" font-style="normal" 
>
<path vector-effect="none" fill-rule="evenodd" d="M-600,195 L-830,195"/>
</g>

<g fill="none" stroke="#000000" stroke-opacity="1" stroke-width="1" stroke-linecap="square" stroke-linejoin="bevel" transform="matrix(1,0,0,1,1485,1050)"
font-family="Sans Serif" font-size="31.75" font-weight="400" font-style="normal" 
>
</g>

<g fill="none" stroke="#000000" stroke-opacity="1" stroke-width="1" stroke-linecap="square" stroke-linejoin="bevel" transform="matrix(1,0,0,1,1485,1050)"
font-family="Sans Serif" font-size="31.75" font-weight="400" font-style="normal" 
>
</g>

<g fill="none" stroke="#000000" stroke-opacity="1" stroke-width="7" stroke-linecap="round" stroke-linejoin="bevel" transform="matrix(1,0,0,1,1485,1050)"
font-family="Sans Serif" font-size="31.75" font-weight="400" font-style="normal" 
>
<path vector-effect="none" fill-rule="evenodd" d="M-600,275 L-600,195"/>
</g>

<g fill="none" stroke="#000000" stroke-opacity="1" stroke-width="1" stroke-linecap="square" stroke-linejoin="bevel" transform="matrix(1,0,0,1,1485,1050)"
font-family="Sans Serif" font-size="31.75" font-weight="400" font-style="normal" 
>
</g>

<g fill="none" stroke="#000000" stroke-opacity="1" stroke-width="1" stroke-linecap="square" stroke-linejoin="bevel" transform="matrix(1,0,0,1,1485,1050)"
font-family="Sans Serif" font-size="31.75" font-weight="400" font-style="normal" 
>
</g>

<g fill="none" stroke="#000000" stroke-opacity="1" stroke-width="7" stroke-linecap="round" stroke-linejoin="bevel" transform="matrix(1,0,0,1,1485,1050)"
font-family="Sans Serif" font-size="31.75" font-weight="400" font-style="normal" 
>
<path vector-effect="none" fill-rule="evenodd" d="M-200,275 L-600,275"/>
</g>

<g fill="none" stroke="#000000" stroke-opacity="1" stroke-width="1" stroke-linecap="square" stroke-linejoin="bevel" transform="matrix(1,0,0,1,1485,1050)"
font-family="Sans Serif" font-size="31.75" font-weight="400" font-style="normal" 
>
</g>

<g fill="none" stroke="#000000" stroke-opacity="1" stroke-width="1" stroke-linecap="square" stroke-linejoin="bevel" transform="matrix(1,0,0,1,1485,1050)"
font-family="Sans Serif" font-size="31.75" font-weight="400" font-style="normal" 
>
</g>

<g fill="none" stroke="#000000" stroke-opacity="1" stroke-width="7" stroke-linecap="round" stroke-linejoin="bevel" transform="matrix(1,0,0,1,1485,1050)"
font-family="Sans Serif" font-size="31.75" font-weight="400" font-style="normal" 
>
<path vector-effect="none" fill-rule="evenodd" d="M-200,195 L-200,275"/>
</g>

<g fill="none" stroke="#000000" stroke-opacity="1" stroke-width="1" stroke-linecap="square" stroke-linejoin="bevel" transform="matrix(1,0,0,1,1485,1050)"
font-family="Sans Serif" font-size="31.75" font-weight="400" font-style="normal" 
>
</g>

<g fill="none" stroke="#000000" stroke-opacity="1" stroke-width="1" stroke-linecap="square" stroke-linejoin="bevel" transform="matrix(1,0,0,1,1485,1050)"
font-family="Sans Serif" font-size="31.75" font-weight="400" font-style="normal" 
>
</g>

<g fill="none" stroke="#000000" stroke-opacity="1" stroke-width="7" stroke-linecap="round" stroke-linejoin="bevel" transform="matrix(1,0,0,1,1485,1050)"
font-family="Sans Serif" font-size="31.75" font-weight="400" font-style="normal" 
>
<path vector-effect="none" fill-rule="evenodd" d="M200,195 L-200,195"/>
</g>

<g fill="none" stroke="#000000" stroke-opacity="1" stroke-width="1" stroke-linecap="square" stroke-linejoin="bevel" transform="matrix(1,0,0,1,1485,1050)"
font-family="Sans Serif" font-size="31.75" font-weight="400" font-style="normal" 
>
</g>

<g fill="none" stroke="#000000" stroke-opacity="1" stroke-width="1" stroke-linecap="square" stroke-linejoin="bevel" transform="matrix(1,0,0,1,1485,1050)"
font-family="Sans Serif" font-size="31.75" font-weight="400" font-style="normal" 
>
</g>

<g fill="none" stroke="#000000" stroke-opacity="1" stroke-width="7" stroke-linecap="round" stroke-linejoin="bevel" transform="matrix(1,0,0,1,1485,1050)"
font-family="Sans Serif" font-size="31.75" font-weight="400" font-style="normal" 
>
<path vector-effect="none" fill-rule="evenodd" d="M200,275 L200,195"/>
</g>

<g fill="none" stroke="#000000" stroke-opacity="1" stroke-width="1" stroke-linecap="square" stroke-linejoin="bevel" transform="matrix(1,0,0,1,1485,1050)"
font-family="Sans Serif" font-size="31.75" font-weight="400" font-style="normal" 
>
</g>

<g fill="none" stroke="#000000" stroke-opacity="1" stroke-width="1" stroke-linecap="square" stroke-linejoin="bevel" transform="matrix(1,0,0,1,1485,1050)"
font-family="Sans Serif" font-size="31.75" font-weight="400" font-style="normal" 
>
</g>

<g fill="none" stroke="#000000" stroke-opacity="1" stroke-width="7" stroke-linecap="round" stroke-linejoin="bevel" transform="matrix(1,0,0,1,1485,1050)"
font-family="Sans Serif" font-size="31.75" font-weight="400" font-style="normal" 
>
<path vector-effect="none" fill-rule="evenodd" d="M600,275 L200,275"/>
</g>

<g fill="none" stroke="#000000" stroke-opacity="1" stroke-width="1" stroke-linecap="square" stroke-linejoin="bevel" transform="matrix(1,0,0,1,1485,1050)"
font-family="Sans Serif" font-size="31.75" font-weight="400" font-style="normal" 
>
</g>

<g fill="none" stroke="#000000" stroke-opacity="1" stroke-width="1" stroke-linecap="square" stroke-linejoin="bevel" transform="matrix(1,0,0,1,1485,1050)"
font-family="Sans Serif" font-size="31.75" font-weight="400" font-style="normal" 
>
</g>

<g fill="none" stroke="#000000" stroke-opacity="1" stroke-width="7" stroke-linecap="round" stroke-linejoin="bevel" transform="matrix(1,0,0,1,1485,1050)"
font-family="Sans Serif" font-size="31.75" font-weight="400" font-style="normal" 
>
<path vector-effect="none" fill-rule="evenodd" d="M600,195 L600,275"/>
</g>

<g fill="none" stroke="#000000" stroke-opacity="1" stroke-width="1" stroke-linecap="square" stroke-linejoin="bevel" transform="matrix(1,0,0,1,1485,1050)"
font-family="Sans Serif" font-size="31.75" font-weight="400" font-style="normal" 
>
</g>

<g fill="none" stroke="#000000" stroke-opacity="1" stroke-width="1" stroke-linecap="square" stroke-linejoin="bevel" transform="matrix(1,0,0,1,1485,1050)"
font-family="Sans Serif" font-size="31.75" font-weight="400" font-style="normal" 
>
</g>

<g fill="none" stroke="#000000" stroke-opacity="1" stroke-width="7" stroke-linecap="round" stroke-linejoin="bevel" transform="matrix(1,0,0,1,1485,1050)"
font-family="Sans Serif" font-size="31.75" font-weight="400" font-style="normal" 
>
<path vector-effect="none" fill-rule="evenodd" d="M830,195 L600,195"/>
</g>

<g fill="none" stroke="#000000" stroke-opacity="1" stroke-width="1" stroke-linecap="square" stroke-linejoin="bevel" transform="matrix(1,0,0,1,1485,1050)"
font-family="Sans Serif" font-size="31.75" font-weight="400" font-style="normal" 
>
</g>

<g fill="none" stroke="#000000" stroke-opacity="1" stroke-width="1" stroke-linecap="square" stroke-linejoin="bevel" transform="matrix(1,0,0,1,1485,1050)"
font-family="Sans Serif" font-size="31.75" font-weight="400" font-style="normal" 
>
</g>

<g fill="none" stroke="#000000" stroke-opacity="1" stroke-width="7" stroke-linecap="round" stroke-linejoin="bevel" transform="matrix(1,0,0,1,1485,1050)"
font-family="Sans Serif" font-size="31.75" font-weight="400" font-style="normal" 
>
<path vector-effect="none" fill-rule="evenodd" d="M830,40 L830,195"/>
</g>

<g fill="none" stroke="#000000" stroke-opacity="1" stroke-width="1" stroke-linecap="square" stroke-linejoin="bevel" transform="matrix(1,0,0,1,1485,1050)"
font-family="Sans Serif" font-size="31.75" font-weight="400" font-style="normal" 
>
</g>

<g fill="none" stroke="#000000" stroke-opacity="1" stroke-width="1" stroke-linecap="square" stroke-linejoin="bevel" transform="matrix(1,0,0,1,1485,1050)"
font-family="Sans Serif" font-size="31.75" font-weight="400" font-style="normal" 
>
</g>

<g fill="none" stroke="#000000" stroke-opacity="1" stroke-width="7" stroke-linecap="round" stroke-linejoin="bevel" transform="matrix(1,0,0,1,1485,1050)"
font-family="Sans Serif" font-size="31.75" font-weight="400" font-style="normal" 
>
<path vector-effect="none" fill-rule="evenodd" d="M750,40 L830,40"/>
</g>

<g fill="none" stroke="#000000" stroke-opacity="1" stroke-width="1" stroke-linecap="square" stroke-linejoin="bevel" transform="matrix(1,0,0,1,1485,1050)"
font-family="Sans Serif" font-size="31.75" font-weight="400" font-style="normal" 
>
</g>

<g fill="none" stroke="#000000" stroke-opacity="1" stroke-width="1" stroke-linecap="square" stroke-linejoin="bevel" transform="matrix(1,0,0,1,1485,1050)"
font-family="Sans Serif" font-size="31.75" font-weight="400" font-style="normal" 
>
</g>

<g fill="none" stroke="#000000" stroke-opacity="1" stroke-width="7" stroke-linecap="round" stroke-linejoin="bevel" transform="matrix(1,0,0,1,1485,1050)"
font-family="Sans Serif" font-size="31.75" font-weight="400" font-style="normal" 
>
<path vector-effect="none" fill-rule="evenodd" d="M750,-80 L750,40"/>
</g>

<g fill="none" stroke="#000000" stroke-opacity="1" stroke-width="1" stroke-linecap="square" stroke-linejoin="bevel" transform="matrix(1,0,0,1,1485,1050)"
font-family="Sans Serif" font-size="31.75" font-weight="400" font-style="normal" 
>
</g>

<g fill="none" stroke="#000000" stroke-opacity="1" stroke-width="1" stroke-linecap="square" stroke-linejoin="bevel" transform="matrix(1,0,0,1,1485,1050)"
font-family="Sans Serif" font-size="31.75" font-weight="400" font-style="normal" 
>
</g>

<g fill="none" stroke="#000000" stroke-opacity="1" stroke-width="7" stroke-linecap="round" stroke-linejoin="bevel" transform="matrix(1,0,0,1,1485,1050)"
font-family="Sans Serif" font-size="31.75" font-weight="400" font-style="normal" 
>
<path vector-effect="none" fill-rule="evenodd" d="M830,-80 L750,-80"/>
</g>

<g fill="none" stroke="#000000" stroke-opacity="1" stroke-width="1" stroke-linecap="square" stroke-linejoin="bevel" transform="matrix(1,0,0,1,1485,1050)"
font-family="Sans Serif" font-size="31.75" font-weight="400" font-style="normal" 
>
</g>

<g fill="none" stroke="#000000" stroke-opacity="1" stroke-width="1" stroke-linecap="square" stroke-linejoin="bevel" transform="matrix(1,0,0,1,1485,1050)"
font-family="Sans Serif" font-size="31.75" font-weight="400" font-style="normal" 
>
</g>

<g fill="none" stroke="#000000" stroke-opacity="1" stroke-width="7" stroke-linecap="round" stroke-linejoin="bevel" transform="matrix(1,0,0,1,1485,1050)"
font-family="Sans Serif" font-size="31.75" font-weight="400" font-style="normal" 
>
<path vector-effect="none" fill-rule="evenodd" d="M830,-235 L830,-80"/>
</g>

<g fill="none" stroke="#000000" stroke-opacity="1" stroke-width="1" stroke-linecap="square" stroke-linejoin="bevel" transform="matrix(1,0,0,1,1485,1050)"
font-family="Sans Serif" font-size="31.75" font-weight="400" font-style="normal" 
>
</g>

<g fill="none" stroke="#000000" stroke-opacity="1" stroke-width="1" stroke-linecap="square" stroke-linejoin="bevel" transform="matrix(1,0,0,1,1485,1050)"
font-family="Sans Serif" font-size="31.75" font-weight="400" font-style="normal" 
>
</g>

<g fill="none" stroke="#000000" stroke-opacity="1" stroke-width="7" stroke-linecap="round" stroke-linejoin="bevel" transform="matrix(1,0,0,1,1485,1050)"
font-family="Sans Serif" font-size="31.75" font-weight="400" font-style="normal" 
>
<path vector-effect="none" fill-rule="evenodd" d="M600,-235 L830,-235"/>
</g>

<g fill="none" stroke="#000000" stroke-opacity="1" stroke-width="1" stroke-linecap="square" stroke-linejoin="bevel" transform="matrix(1,0,0,1,1485,1050)"
font-family="Sans Serif" font-size="31.75" font-weight="400" font-style="normal" 
>
</g>

<g fill="none" stroke="#000000" stroke-opacity="1" stroke-width="1" stroke-linecap="square" stroke-linejoin="bevel" transform="matrix(1,0,0,1,1485,1050)"
font-family="Sans Serif" font-size="31.75" font-weight="400" font-style="normal" 
>
</g>

<g fill="none" stroke="#000000" stroke-opacity="1" stroke-width="7" stroke-linecap="round" stroke-linejoin="bevel" transform="matrix(1,0,0,1,1485,1050)"
font-family="Sans Serif" font-size="31.75" font-weight="400" font-style="normal" 
>
<path vector-effect="none" fill-rule="evenodd" d="M600,-275 L600,-235"/>
</g>

<g fill="none" stroke="#000000" stroke-opacity="1" stroke-width="1" stroke-linecap="square" stroke-linejoin="bevel" transform="matrix(1,0,0,1,1485,1050)"
font-family="Sans Serif" font-size="31.75" font-weight="400" font-style="normal" 
>
</g>

<g fill="none" stroke="#000000" stroke-opacity="1" stroke-width="1" stroke-linecap="square" stroke-linejoin="bevel" transform="matrix(1,0,0,1,1485,1050)"
font-family="Sans Serif" font-size="31.75" font-weight="400" font-style="normal" 
>
</g>

<g fill="none" stroke="#000000" stroke-opacity="1" stroke-width="7" stroke-linecap="round" stroke-linejoin="bevel" transform="matrix(1,0,0,1,1485,1050)"
font-family="Sans Serif" font-size="31.75" font-weight="400" font-style="normal" 
>
<path vector-effect="none" fill-rule="evenodd" d="M200,-275 L600,-275"/>
</g>

<g fill="none" stroke="#000000" stroke-opacity="1" stroke-width="1" stroke-linecap="square" stroke-linejoin="bevel" transform="matrix(1,0,0,1,1485,1050)"
font-family="Sans Serif" font-size="31.75" font-weight="400" font-style="normal" 
>
</g>

<g fill="none" stroke="#000000" stroke-opacity="1" stroke-width="1" stroke-linecap="square" stroke-linejoin="bevel" transform="matrix(1,0,0,1,1485,1050)"
font-family="Sans Serif" font-size="31.75" font-weight="400" font-style="normal" 
>
</g>

<g fill="none" stroke="#000000" stroke-opacity="1" stroke-width="7" stroke-linecap="round" stroke-linejoin="bevel" transform="matrix(1,0,0,1,1485,1050)"
font-family="Sans Serif" font-size="31.75" font-weight="400" font-style="normal" 
>
<path vector-effect="none" fill-rule="evenodd" d="M200,-235 L200,-275"/>
</g>

<g fill="none" stroke="#000000" stroke-opacity="1" stroke-width="1" stroke-linecap="square" stroke-linejoin="bevel" transform="matrix(1,0,0,1,1485,1050)"
font-family="Sans Serif" font-size="31.75" font-weight="400" font-style="normal" 
>
</g>

<g fill="none" stroke="#000000" stroke-opacity="1" stroke-width="1" stroke-linecap="square" stroke-linejoin="bevel" transform="matrix(1,0,0,1,1485,1050)"
font-family="Sans Serif" font-size="31.75" font-weight="400" font-style="normal" 
>
</g>

<g fill="none" stroke="#000000" stroke-opacity="1" stroke-width="7" stroke-linecap="round" stroke-linejoin="bevel" transform="matrix(1,0,0,1,1485,1050)"
font-family="Sans Serif" font-size="31.75" font-weight="400" font-style="normal" 
>
<path vector-effect="none" fill-rule="evenodd" d="M-200,-235 L200,-235"/>
</g>

<g fill="none" stroke="#000000" stroke-opacity="1" stroke-width="1" stroke-linecap="square" stroke-linejoin="bevel" transform="matrix(1,0,0,1,1485,1050)"
font-family="Sans Serif" font-size="31.75" font-weight="400" font-style="normal" 
>
</g>

<g fill="none" stroke="#000000" stroke-opacity="1" stroke-width="1" stroke-linecap="square" stroke-linejoin="bevel" transform="matrix(1,0,0,1,0,0)"
font-family="Sans Serif" font-size="31.75" font-weight="400" font-style="normal" 
>
</g>
</g>
</svg>
