<?xml version="1.0" encoding="UTF-8" standalone="no"?>
<svg
   xmlns:dc="http://purl.org/dc/elements/1.1/"
   xmlns:cc="http://creativecommons.org/ns#"
   xmlns:rdf="http://www.w3.org/1999/02/22-rdf-syntax-ns#"
   xmlns:svg="http://www.w3.org/2000/svg"
   xmlns="http://www.w3.org/2000/svg"
   xmlns:sodipodi="http://sodipodi.sourceforge.net/DTD/sodipodi-0.dtd"
   xmlns:inkscape="http://www.inkscape.org/namespaces/inkscape"
   width="297mm"
   height="210mm"
   viewBox="0 0 2970 2100"
   version="1.2"
   id="svg468"
   sodipodi:docname="LidOut.svg"
   inkscape:version="0.92.2 (5c3e80d, 2017-08-06)">
  <metadata
     id="metadata472">
    <rdf:RDF>
      <cc:Work
         rdf:about="">
        <dc:format>image/svg+xml</dc:format>
        <dc:type
           rdf:resource="http://purl.org/dc/dcmitype/StillImage" />
      </cc:Work>
    </rdf:RDF>
  </metadata>
  <sodipodi:namedview
     pagecolor="#ffffff"
     bordercolor="#666666"
     borderopacity="1"
     objecttolerance="10"
     gridtolerance="10"
     guidetolerance="10"
     inkscape:pageopacity="0"
     inkscape:pageshadow="2"
     inkscape:window-width="1920"
     inkscape:window-height="1015"
     id="namedview470"
     showgrid="false"
     inkscape:zoom="1.0230556"
     inkscape:cx="561.25984"
     inkscape:cy="396.85039"
     inkscape:window-x="0"
     inkscape:window-y="0"
     inkscape:window-maximized="1"
     inkscape:current-layer="svg468" />
  <title
     id="title2">FreeCAD SVG Export</title>
  <desc
     id="desc4">Drawing page: Page011 exported from FreeCAD document: BreadBoardBox</desc>
  <defs
     id="defs6" />
  <path
     d="m 2485,1880 h 330 V 220 h -330 v 40 h -400 v -40 h -400 v 40 H 1285 V 220 H 885 v 40 H 485 V 220 H 155 v 230 h 40 v 400 h -40 v 400 h 40 v 400 h -40 v 230 h 330 v -40 h 400 v 40 h 400 v -40 h 400 v 40 h 400 v -40 h 400 v 40"
     id="path50"
     inkscape:connector-curvature="0"
     style="font-style:normal;font-weight:400;font-size:medium;font-family:'Sans Serif';vector-effect:non-scaling-stroke;fill:none;fill-opacity:1;fill-rule:evenodd;stroke:#000000;stroke-width:1;stroke-linecap:square;stroke-linejoin:bevel;stroke-opacity:1" />
  <path
     d="m 2715,420 v 1260 c 0,55.228 -44.77,100 -100,100 H 355 c -55.23,0 -100,-44.772 -100,-100 V 420 c 0,-55.228 44.77,-100 100,-100 h 2260 c 55.23,0 100,44.772 100,100"
     id="path66"
     inkscape:connector-curvature="0"
     style="font-style:normal;font-weight:400;font-size:medium;font-family:'Sans Serif';vector-effect:non-scaling-stroke;fill:none;fill-opacity:1;fill-rule:evenodd;stroke:#000000;stroke-width:1;stroke-linecap:square;stroke-linejoin:bevel;stroke-opacity:1" />
</svg>
